<svg xmlns="http://www.w3.org/2000/svg" xml:space="preserve" style="fill-rule:evenodd;clip-rule:evenodd;stroke-linecap:round;stroke-linejoin:round;stroke-miterlimit:1.5" viewBox="0 0 494 556">
  <path d="M5824.41 25.017h326.814v454.018H5824.41z" style="fill:none" transform="matrix(1.5089 0 0 1.22311 -8788.45 -30.598)"/>
  <path d="M717.971 1733.19c-44.663 0-80.924-28.84-80.924-64.38 0-35.54 36.261-64.39 80.924-64.39 34.551 0 71.362 27.36 99.164 56.9 3.395 7.11 25.573-2.95 39.57 3.76 13.997 6.7 17.537 20.9 8.336 36.34-9.201 15.44-26.376 30.16-51.463 32.6-25.087 2.44-50.943-.83-95.607-.83Z" style="fill:#eebf94;stroke:#000;stroke-width:15.4px" transform="matrix(1 0 0 1 -501.312 -1214.715)"/>
  <path d="M670.942 574.639c-69.178 41.349-39.706 103.702-53.746 145.731-11.694 35.005-46.474 56.981-30.494 106.44 6.494 20.1 70.757 37.21 137.906-58.34 43.865-62.417 52.966-97.372 44.021-129.677-8.944-32.305-46.617-94.68-97.687-64.154Z" style="fill:#eebf94;stroke:#000;stroke-width:23.59px" transform="matrix(-.19225 .55185 .67481 .23509 -69.254 -227.365)"/>
  <path d="M728.727 1446.86c88.546 14.1 100.049 121.27 100.049 183.61 0 62.33-56.027 114.34-118.358 114.34s-112.936-50.61-112.936-112.94 42.699-199.12 131.245-185.01Z" style="fill:#f2a63f;stroke:#000;stroke-width:15.4px" transform="matrix(1 0 0 1 -572.546 -1213.821)"/>
  <path d="M670.942 574.639c-69.178 41.349-39.706 103.702-53.746 145.731-11.694 35.005-46.474 56.981-30.494 106.44 6.494 20.1 70.757 37.21 137.906-58.34 43.865-62.417 52.966-97.372 44.021-129.677-8.944-32.305-46.617-94.68-97.687-64.154Z" style="fill:#eebf94;stroke:#000;stroke-width:23.59px" transform="matrix(-.32587 .48508 .59317 .39849 -12.461 -275.956)"/>
  <circle cx="664.822" cy="347.378" r="203.146" style="fill:#eebf94;stroke:#000;stroke-width:22.24px" transform="matrix(-.68502 .10106 .10106 .68503 597.242 -154.443)"/>
  <path d="M575.063 328.042c4.986-7.255 13.666-12.061 23.532-12.061 9.322 0 17.586 4.291 22.674 10.885" style="fill:none;stroke:#000;stroke-width:23.16px" transform="matrix(.66419 .02906 -.02906 .6642 -131.244 -90.41)"/>
  <path d="M575.063 328.042c4.986-7.255 13.666-12.061 23.532-12.061 9.322 0 17.586 4.291 22.674 10.885" style="fill:none;stroke:#000;stroke-width:23.16px" transform="matrix(.66419 .02906 -.02906 .6642 -237.514 -95.058)"/>
  <path d="M585.335 319.118c3.948-2.001 8.464-3.137 13.26-3.137 4.51 0 8.772 1.004 12.546 2.787" style="fill:none;stroke:#000;stroke-width:38.37px" transform="matrix(-.40094 -.01754 .01754 -.40094 438.648 313.895)"/>
  <path d="M812.842 312.095a54.233 54.233 0 0 1 33.761-11.731c30.068 0 54.481 24.412 54.481 54.481 0 30.068-24.413 54.48-54.481 54.48a54.2 54.2 0 0 1-29.888-8.933" style="fill:#eebf94;stroke:#000;stroke-width:23.16px" transform="matrix(-.6577 .09703 .09703 .65771 569.431 -142.068)"/>
  <path d="M594.223 211.22c33.624-9.305 32.461 20.653 31.456 23.744-6.088 18.728-22.555 28.525-44.354 28.525-25.397 0-41.781-10.839-44.246-36.117-1.955-20.054 5.675-38.055 28.213-59.977" style="fill:#eebf94;stroke:#000;stroke-width:23.16px" transform="matrix(-.6577 .09703 .09703 .65771 565.29 -150.472)"/>
  <circle cx="783.555" cy="1405.92" r="17.703" transform="matrix(1 0 0 1 -581.05 -1181.983)"/>
  <path d="M717.971 1733.19c-44.663 0-80.924-28.84-80.924-64.38 0-35.54 36.261-64.39 80.924-64.39 34.551 0 71.362 27.36 99.164 56.9 3.395 7.11 25.573-2.95 39.57 3.76 13.997 6.7 17.537 20.9 8.336 36.34-9.201 15.44-26.376 30.16-51.463 32.6-25.087 2.44-50.943-.83-95.607-.83Z" style="fill:#eebf94;stroke:#000;stroke-width:15.4px" transform="matrix(1 0 0 1 -563 -1192.358)"/>
  <path d="M1113.66 1366.91v144.12c0 17.37-14.11 31.48-31.48 31.48h-62.96c-17.37 0-31.476-14.11-31.476-31.48v-144.12c0-17.37 14.106-31.48 31.476-31.48h62.96c17.37 0 31.48 14.11 31.48 31.48Z" style="fill:#999;stroke:#000;stroke-width:15.4px" transform="rotate(12.479 6250.552 -2124.338)"/>
  <circle cx="1052.41" cy="1527.73" r="14.803" style="fill:#cac0c0;stroke:#000;stroke-width:4px" transform="rotate(12.479 6251.406 -2132.153)"/>
  <path d="M1113.66 1354.61v168.72c0 10.58-8.76 19.18-19.55 19.18h-86.82c-10.787 0-19.546-8.6-19.546-19.18v-168.72c0-10.58 8.759-19.18 19.546-19.18h86.82c10.79 0 19.55 8.6 19.55 19.18Z" style="fill:#efc197;stroke:#000;stroke-width:5.5px" transform="matrix(.7031 .1556 -.15855 .71649 -104.878 -972.656)"/>
  <circle cx="664.822" cy="347.378" r="203.146" style="fill:#eebf94;stroke:#000;stroke-width:23.04px" transform="matrix(.10967 .04328 -.04328 .10967 347.425 154.871)"/>
  <path d="M575.063 328.042c4.986-7.255 13.666-12.061 23.532-12.061 9.322 0 17.586 4.291 22.674 10.885" style="fill:none;stroke:#000;stroke-width:24px" transform="matrix(-.11058 -.0242 -.0242 .11058 471.092 195.483)"/>
  <path d="M575.063 328.042c4.986-7.255 13.666-12.061 23.532-12.061 9.322 0 17.586 4.291 22.674 10.885" style="fill:none;stroke:#000;stroke-width:24px" transform="matrix(-.11058 -.0242 -.0242 .11058 488.785 199.355)"/>
  <path d="M585.335 319.118c3.948-2.001 8.464-3.137 13.26-3.137 4.51 0 8.772 1.004 12.546 2.787" style="fill:none;stroke:#000;stroke-width:39.76px" transform="matrix(.06675 .0146 .0146 -.06675 360.054 237.246)"/>
  <path d="M681.087 467.395c-16.563 17.574-46.225 28.352-80.031 28.352-32.581 0-61.312-11.83-78.179-28.352" style="fill:none;stroke:#000;stroke-width:25.46px" transform="matrix(.09752 .02134 -.0242 .11058 356.144 165.15)"/>
  <path d="M812.842 312.095a54.233 54.233 0 0 1 33.761-11.731c30.068 0 54.481 24.412 54.481 54.481 0 30.068-24.413 54.48-54.481 54.48a54.2 54.2 0 0 1-29.888-8.933" style="fill:#eebf94;stroke:#000;stroke-width:24px" transform="matrix(.1053 .04155 -.04155 .1053 355.362 156.523)"/>
  <path d="M812.842 312.095a54.233 54.233 0 0 1 33.761-11.731c30.068 0 54.481 24.412 54.481 54.481 0 30.068-24.413 54.48-54.481 54.48a54.2 54.2 0 0 1-29.888-8.933" style="fill:#eebf94;stroke:#000;stroke-width:24px" transform="matrix(-.113 -.00675 -.00675 .113 478.943 183.87)"/>
  <path d="M594.223 211.22c33.624-9.305 32.461 20.653 31.456 23.744-6.088 18.728-22.555 28.525-44.354 28.525-25.397 0-41.781-10.839-44.246-36.117-1.955-20.054 5.675-38.055 28.213-59.977" style="fill:#eebf94;stroke:#000;stroke-width:24px" transform="matrix(.1053 .04155 -.04155 .1053 352.569 156.767)"/>
</svg>
